<mxfile host="app.diagrams.net" modified="2022-11-17T23:28:11.406Z" agent="5.0 (Windows)" etag="4FvulQwqkt5XcQcI-md0" version="20.5.3" type="github">
  <diagram id="qkWC79-bBq68n9qE12cj" name="PÃ¡gina-1">
    <mxGraphModel dx="782" dy="412" grid="1" gridSize="10" guides="1" tooltips="1" connect="1" arrows="1" fold="1" page="1" pageScale="1" pageWidth="827" pageHeight="1169" math="0" shadow="0">
      <root>
        <mxCell id="0" />
        <mxCell id="1" parent="0" />
        <mxCell id="9JzB9CvQ8h8w4ACdda5t-1" value="" style="rounded=0;whiteSpace=wrap;html=1;fillColor=#f5f5f5;fontColor=#333333;strokeColor=#666666;" parent="1" vertex="1">
          <mxGeometry x="350" y="140" width="150" height="290" as="geometry" />
        </mxCell>
        <mxCell id="9JzB9CvQ8h8w4ACdda5t-12" style="edgeStyle=orthogonalEdgeStyle;rounded=0;orthogonalLoop=1;jettySize=auto;html=1;exitX=0;exitY=0.25;exitDx=0;exitDy=0;entryX=1;entryY=0.5;entryDx=0;entryDy=0;fontSize=14;" parent="1" source="9JzB9CvQ8h8w4ACdda5t-2" target="9JzB9CvQ8h8w4ACdda5t-5" edge="1">
          <mxGeometry relative="1" as="geometry" />
        </mxCell>
        <mxCell id="9JzB9CvQ8h8w4ACdda5t-2" value="" style="rounded=0;whiteSpace=wrap;html=1;fillColor=#fff2cc;strokeColor=#d6b656;" parent="1" vertex="1">
          <mxGeometry x="360" y="170" width="20" height="220" as="geometry" />
        </mxCell>
        <mxCell id="9JzB9CvQ8h8w4ACdda5t-3" value="" style="rounded=0;whiteSpace=wrap;html=1;fillColor=#fff2cc;strokeColor=#d6b656;" parent="1" vertex="1">
          <mxGeometry x="470" y="170" width="20" height="220" as="geometry" />
        </mxCell>
        <mxCell id="9JzB9CvQ8h8w4ACdda5t-14" style="edgeStyle=orthogonalEdgeStyle;rounded=0;orthogonalLoop=1;jettySize=auto;html=1;fontSize=14;entryX=1;entryY=0.5;entryDx=0;entryDy=0;exitX=0;exitY=0.428;exitDx=0;exitDy=0;exitPerimeter=0;" parent="1" target="9JzB9CvQ8h8w4ACdda5t-6" edge="1">
          <mxGeometry relative="1" as="geometry">
            <mxPoint x="290" y="255.5" as="targetPoint" />
            <mxPoint x="360" y="255.03999999999996" as="sourcePoint" />
            <Array as="points">
              <mxPoint x="310" y="255" />
              <mxPoint x="310" y="210" />
              <mxPoint x="295" y="210" />
            </Array>
          </mxGeometry>
        </mxCell>
        <mxCell id="9JzB9CvQ8h8w4ACdda5t-4" value="&lt;font style=&quot;font-size: 19px;&quot;&gt;&lt;b&gt;Micro&lt;/b&gt;&lt;/font&gt;" style="text;html=1;strokeColor=none;fillColor=none;align=center;verticalAlign=middle;whiteSpace=wrap;rounded=0;labelBackgroundColor=#D5E8D4;" parent="1" vertex="1">
          <mxGeometry x="395" y="210" width="60" height="30" as="geometry" />
        </mxCell>
        <mxCell id="9JzB9CvQ8h8w4ACdda5t-5" value="" style="rounded=1;whiteSpace=wrap;html=1;labelBackgroundColor=#D5E8D4;fontSize=19;fillColor=#1ba1e2;fontColor=#ffffff;strokeColor=#006EAF;" parent="1" vertex="1">
          <mxGeometry x="175" y="140" width="120" height="30" as="geometry" />
        </mxCell>
        <mxCell id="9JzB9CvQ8h8w4ACdda5t-6" value="" style="rounded=1;whiteSpace=wrap;html=1;labelBackgroundColor=#D5E8D4;fontSize=19;fillColor=#1ba1e2;fontColor=#ffffff;strokeColor=#006EAF;" parent="1" vertex="1">
          <mxGeometry x="175" y="190" width="120" height="30" as="geometry" />
        </mxCell>
        <mxCell id="9JzB9CvQ8h8w4ACdda5t-7" value="" style="rounded=1;whiteSpace=wrap;html=1;labelBackgroundColor=#D5E8D4;fontSize=19;fillColor=#1ba1e2;fontColor=#ffffff;strokeColor=#006EAF;" parent="1" vertex="1">
          <mxGeometry x="175" y="245" width="120" height="30" as="geometry" />
        </mxCell>
        <mxCell id="9JzB9CvQ8h8w4ACdda5t-8" value="&lt;font style=&quot;font-size: 14px;&quot;&gt;Motor CC&lt;/font&gt;" style="text;html=1;strokeColor=none;fillColor=none;align=center;verticalAlign=middle;whiteSpace=wrap;rounded=0;labelBackgroundColor=#D5E8D4;fontSize=19;" parent="1" vertex="1">
          <mxGeometry x="180" y="140" width="100" height="30" as="geometry" />
        </mxCell>
        <mxCell id="9JzB9CvQ8h8w4ACdda5t-9" value="Sensor UltaS." style="text;html=1;strokeColor=none;fillColor=none;align=center;verticalAlign=middle;whiteSpace=wrap;rounded=0;labelBackgroundColor=#D5E8D4;fontSize=14;" parent="1" vertex="1">
          <mxGeometry x="185" y="190" width="100" height="30" as="geometry" />
        </mxCell>
        <mxCell id="9JzB9CvQ8h8w4ACdda5t-10" value="Servo Motor" style="text;html=1;strokeColor=none;fillColor=none;align=center;verticalAlign=middle;whiteSpace=wrap;rounded=0;labelBackgroundColor=#D5E8D4;fontSize=14;" parent="1" vertex="1">
          <mxGeometry x="190" y="245" width="90" height="30" as="geometry" />
        </mxCell>
        <mxCell id="9JzB9CvQ8h8w4ACdda5t-13" value="" style="endArrow=classic;html=1;rounded=0;fontSize=14;entryX=1;entryY=0.5;entryDx=0;entryDy=0;exitX=0.1;exitY=0.414;exitDx=0;exitDy=0;exitPerimeter=0;" parent="1" source="9JzB9CvQ8h8w4ACdda5t-2" target="9JzB9CvQ8h8w4ACdda5t-7" edge="1">
          <mxGeometry width="50" height="50" relative="1" as="geometry">
            <mxPoint x="380" y="250" as="sourcePoint" />
            <mxPoint x="430" y="200" as="targetPoint" />
            <Array as="points">
              <mxPoint x="340" y="260" />
              <mxPoint x="320" y="260" />
            </Array>
          </mxGeometry>
        </mxCell>
        <mxCell id="AEa30x7ZPqi3N-gTCQo1-1" value="" style="rounded=1;whiteSpace=wrap;html=1;labelBackgroundColor=#D5E8D4;fontSize=19;fillColor=#1ba1e2;fontColor=#ffffff;strokeColor=#006EAF;" parent="1" vertex="1">
          <mxGeometry x="175" y="290" width="120" height="30" as="geometry" />
        </mxCell>
        <mxCell id="AEa30x7ZPqi3N-gTCQo1-2" value="" style="rounded=1;whiteSpace=wrap;html=1;labelBackgroundColor=#D5E8D4;fontSize=19;fillColor=#1ba1e2;fontColor=#ffffff;strokeColor=#006EAF;" parent="1" vertex="1">
          <mxGeometry x="175" y="340" width="120" height="30" as="geometry" />
        </mxCell>
        <mxCell id="AEa30x7ZPqi3N-gTCQo1-3" value="" style="rounded=1;whiteSpace=wrap;html=1;labelBackgroundColor=#D5E8D4;fontSize=19;fillColor=#1ba1e2;fontColor=#ffffff;strokeColor=#006EAF;" parent="1" vertex="1">
          <mxGeometry x="175" y="380" width="120" height="30" as="geometry" />
        </mxCell>
        <mxCell id="AEa30x7ZPqi3N-gTCQo1-4" value="&lt;font style=&quot;font-size: 14px;&quot;&gt;Led Rojo&lt;/font&gt;" style="text;html=1;strokeColor=none;fillColor=none;align=center;verticalAlign=middle;whiteSpace=wrap;rounded=0;labelBackgroundColor=#D5E8D4;fontSize=19;" parent="1" vertex="1">
          <mxGeometry x="180" y="290" width="100" height="30" as="geometry" />
        </mxCell>
        <mxCell id="AEa30x7ZPqi3N-gTCQo1-5" value="Led Azul" style="text;html=1;strokeColor=none;fillColor=none;align=center;verticalAlign=middle;whiteSpace=wrap;rounded=0;labelBackgroundColor=#D5E8D4;fontSize=14;" parent="1" vertex="1">
          <mxGeometry x="185" y="340" width="100" height="30" as="geometry" />
        </mxCell>
        <mxCell id="AEa30x7ZPqi3N-gTCQo1-6" value="Led Verde" style="text;html=1;strokeColor=none;fillColor=none;align=center;verticalAlign=middle;whiteSpace=wrap;rounded=0;labelBackgroundColor=#D5E8D4;fontSize=14;" parent="1" vertex="1">
          <mxGeometry x="190" y="380" width="90" height="30" as="geometry" />
        </mxCell>
        <mxCell id="AEa30x7ZPqi3N-gTCQo1-7" value="" style="endArrow=classic;html=1;rounded=0;entryX=1;entryY=0.5;entryDx=0;entryDy=0;exitX=-0.05;exitY=0.614;exitDx=0;exitDy=0;exitPerimeter=0;" parent="1" source="9JzB9CvQ8h8w4ACdda5t-2" target="AEa30x7ZPqi3N-gTCQo1-1" edge="1">
          <mxGeometry width="50" height="50" relative="1" as="geometry">
            <mxPoint x="380" y="310" as="sourcePoint" />
            <mxPoint x="430" y="260" as="targetPoint" />
          </mxGeometry>
        </mxCell>
        <mxCell id="AEa30x7ZPqi3N-gTCQo1-8" value="" style="endArrow=classic;html=1;rounded=0;entryX=1;entryY=0.5;entryDx=0;entryDy=0;exitX=0.1;exitY=0.845;exitDx=0;exitDy=0;exitPerimeter=0;" parent="1" source="9JzB9CvQ8h8w4ACdda5t-2" target="AEa30x7ZPqi3N-gTCQo1-2" edge="1">
          <mxGeometry width="50" height="50" relative="1" as="geometry">
            <mxPoint x="380" y="310" as="sourcePoint" />
            <mxPoint x="430" y="260" as="targetPoint" />
            <Array as="points">
              <mxPoint x="310" y="355" />
            </Array>
          </mxGeometry>
        </mxCell>
        <mxCell id="AEa30x7ZPqi3N-gTCQo1-9" value="" style="endArrow=classic;html=1;rounded=0;fontSize=14;entryX=1;entryY=0.5;entryDx=0;entryDy=0;exitX=0;exitY=1;exitDx=0;exitDy=0;" parent="1" source="9JzB9CvQ8h8w4ACdda5t-2" target="AEa30x7ZPqi3N-gTCQo1-3" edge="1">
          <mxGeometry width="50" height="50" relative="1" as="geometry">
            <mxPoint x="380" y="310" as="sourcePoint" />
            <mxPoint x="430" y="260" as="targetPoint" />
          </mxGeometry>
        </mxCell>
        <mxCell id="RvPRC2LQZbvF6vRV8Iwu-1" value="" style="endArrow=classic;html=1;rounded=0;exitX=1;exitY=0.5;exitDx=0;exitDy=0;entryX=-0.1;entryY=0.164;entryDx=0;entryDy=0;entryPerimeter=0;" edge="1" parent="1" source="9JzB9CvQ8h8w4ACdda5t-6" target="9JzB9CvQ8h8w4ACdda5t-2">
          <mxGeometry width="50" height="50" relative="1" as="geometry">
            <mxPoint x="380" y="250" as="sourcePoint" />
            <mxPoint x="430" y="200" as="targetPoint" />
          </mxGeometry>
        </mxCell>
      </root>
    </mxGraphModel>
  </diagram>
</mxfile>
